<svg width="48" height="48" viewBox="0 0 48 48" fill="none" xmlns="http://www.w3.org/2000/svg">
<path fill-rule="evenodd" clip-rule="evenodd" d="M24.0435 0.179932C10.8149 0.179932 0.0878906 11.0878 0.0878906 24.5445C0.0878906 35.3096 6.95189 44.4426 16.4702 47.6643C17.6674 47.8899 18.1069 47.1358 18.1069 46.4922C18.1069 45.9112 18.0847 43.9919 18.0744 41.956C11.4099 43.4299 10.0037 39.0812 10.0037 39.0812C8.91394 36.265 7.34382 35.5161 7.34382 35.5161C5.17034 34.0039 7.50766 34.035 7.50766 34.035C9.91321 34.2065 11.1799 36.5458 11.1799 36.5458C13.3165 40.2707 16.784 39.1938 18.151 38.5712C18.366 36.9969 18.9868 35.9212 19.6719 35.3132C14.351 34.6971 8.75764 32.6079 8.75764 23.2719C8.75764 20.6118 9.69344 18.4383 11.2259 16.732C10.9771 16.1179 10.1572 13.6402 11.4579 10.2841C11.4579 10.2841 13.4696 9.62928 18.0474 12.7816C19.9583 12.2418 22.0076 11.971 24.0435 11.9618C26.0793 11.971 28.1302 12.2418 30.0447 12.7816C34.6169 9.62928 36.6258 10.2841 36.6258 10.2841C37.9297 13.6402 37.1094 16.1179 36.8606 16.732C38.3966 18.4383 39.3261 20.6118 39.3261 23.2719C39.3261 32.6301 33.722 34.6906 28.3877 35.2938C29.2469 36.0499 30.0125 37.5327 30.0125 39.8059C30.0125 43.0655 29.9848 45.6893 29.9848 46.4922C29.9848 47.1406 30.416 47.9003 31.6302 47.6611C41.1434 44.4357 47.9986 35.3059 47.9986 24.5445C47.9986 11.0878 37.2732 0.179932 24.0435 0.179932Z" fill="white"/>
<path fill-rule="evenodd" clip-rule="evenodd" d="M9.16108 35.1623C9.10832 35.2837 8.92108 35.3196 8.7505 35.2365C8.57675 35.157 8.47916 34.992 8.53549 34.8706C8.58706 34.7459 8.7747 34.7116 8.94806 34.7943C9.1222 34.8742 9.22138 35.0408 9.16108 35.1623Z" fill="white"/>
<path fill-rule="evenodd" clip-rule="evenodd" d="M10.1314 36.263C10.0171 36.3707 9.79381 36.3207 9.64227 36.1504C9.48558 35.9805 9.45622 35.7534 9.57206 35.644C9.68987 35.5363 9.90647 35.5867 10.0636 35.7566C10.2203 35.9285 10.2508 36.154 10.1314 36.263Z" fill="white"/>
<path fill-rule="evenodd" clip-rule="evenodd" d="M11.0759 37.6662C10.9291 37.7699 10.6891 37.6727 10.5408 37.456C10.394 37.2394 10.394 36.9795 10.544 36.8754C10.6927 36.7713 10.9291 36.8649 11.0795 37.08C11.2259 37.2999 11.2259 37.5601 11.0759 37.6662Z" fill="white"/>
<path fill-rule="evenodd" clip-rule="evenodd" d="M12.3699 39.0219C12.2386 39.1692 11.959 39.1296 11.7543 38.9287C11.5448 38.7322 11.4865 38.4534 11.6182 38.3062C11.7511 38.1585 12.0324 38.2 12.2386 38.3994C12.4465 38.5954 12.51 38.8763 12.3699 39.0219Z" fill="white"/>
<path fill-rule="evenodd" clip-rule="evenodd" d="M14.1551 39.8091C14.0971 39.9999 13.8278 40.0867 13.5565 40.0056C13.2855 39.9221 13.1082 39.6985 13.1629 39.5057C13.2193 39.3136 13.4898 39.2232 13.7631 39.31C14.0337 39.3931 14.2114 39.615 14.1551 39.8091Z" fill="white"/>
<path fill-rule="evenodd" clip-rule="evenodd" d="M16.1155 39.9552C16.1223 40.1561 15.8922 40.3227 15.6074 40.3259C15.3209 40.3328 15.0893 40.1702 15.0861 39.9725C15.0861 39.7696 15.311 39.6045 15.5974 39.5997C15.8823 39.594 16.1155 39.7554 16.1155 39.9552Z" fill="white"/>
<path fill-rule="evenodd" clip-rule="evenodd" d="M17.9399 39.6392C17.974 39.8353 17.7761 40.0367 17.4932 40.0899C17.2152 40.142 16.9577 40.0209 16.9224 39.8264C16.8879 39.6255 17.0894 39.4242 17.3671 39.3721C17.6503 39.3221 17.9038 39.4399 17.9399 39.6392Z" fill="white"/>
</svg>
