<svg width="160" height="160" viewBox="0 0 160 160" fill="none" xmlns="http://www.w3.org/2000/svg">
<g opacity="0.1">
<path d="M19.3352 65.3346C19.0071 64.2152 18.4426 63.8658 17.5577 63.1891C16.6483 62.4936 15.2257 62.0222 14.0906 62.0222C13.2095 62.0222 12.1251 61.8627 11.3595 62.3986C10.8658 62.7442 10.3412 62.9334 9.80786 63.21C9.29437 63.4763 9.07621 63.7693 8.71627 64.2012C8.09519 64.9465 7.6665 65.6063 7.6665 66.6019C7.6665 67.2847 7.93012 67.9935 8.08056 68.6554C8.23232 69.3232 8.34445 70.0901 8.72882 70.6713C9.30674 71.5452 10.2536 72.1334 11.0918 72.7165C11.6863 73.13 12.2391 73.4666 12.9697 73.5362C13.4077 73.5779 13.8843 73.557 14.3248 73.5404C14.6583 73.5278 14.9568 73.3544 15.2784 73.3187C15.5914 73.2839 15.7595 73.1333 16.0145 73.072C16.3958 72.9801 16.9633 72.8305 17.2357 72.5241C17.4023 72.3367 17.7169 72.2465 17.8463 72.0347C18.0514 71.6992 18.7103 71.3895 18.733 70.9808C18.7592 70.5086 17.9266 69.9915 17.6037 69.701C17.3609 69.4825 17.0085 69.2819 16.7338 69.0987C16.4519 68.9108 16.2099 68.6826 15.9308 68.4965C15.3896 68.1356 14.8362 67.6901 14.2579 67.384C13.9728 67.233 13.5817 66.9906 13.4047 66.6897C13.3042 66.5189 13.3543 66.5391 13.5552 66.5391C13.9261 66.5391 14.2969 66.5391 14.6677 66.5391C15.341 66.5391 16.2148 66.4576 16.8133 66.1251C17.1494 65.9384 17.7141 65.8664 18.0931 65.7821C18.4913 65.6936 18.8339 65.6222 19.2181 65.4476C19.8878 65.1432 20.6383 65.2241 21.3344 65.067C21.7796 64.9664 22.2299 64.8829 22.6853 64.8829C22.8609 64.8829 23.2173 65.7678 23.2541 65.9703C23.3371 66.427 23.3252 66.8945 23.3252 67.3714C23.3252 67.8532 23.2857 68.3149 23.2499 68.7809C23.22 69.1697 22.904 69.5228 22.7397 69.8516C22.455 70.4208 21.9626 71.3267 21.3679 71.6416C21.1408 71.7618 20.8818 72.3223 20.5983 71.8842C20.5004 71.7328 20.2549 71.6514 20.1257 71.5078C19.9934 71.3608 19.8098 71.1692 19.6364 71.0728C19.1365 70.7951 18.6765 70.0774 18.0554 70.0774" stroke="white" stroke-linecap="round"/>
<path d="M7 29.6711C7.26778 29.5666 7.79108 29.4989 7.96194 29.2194C8.15681 28.9005 8.32932 28.6833 8.47218 28.316C8.6862 27.7657 8.95734 27.2969 8.95734 26.6974C8.95734 25.8589 8.89572 25.0259 8.88205 24.1922C8.85923 22.8001 8.2188 20.0349 10.3501 20.0349C11.08 20.0349 11.5812 19.8303 12.1945 20.4113C12.6377 20.8312 12.8468 21.4168 13.2066 21.8793C13.4816 22.233 13.6502 22.7281 13.7921 23.1382C14.0185 23.7921 14.4057 24.3411 14.9799 24.7944C15.4518 25.167 15.6855 25.6465 16.2221 25.9446C16.7015 26.211 17.0285 26.2834 17.6148 26.2834C18.1533 26.2834 18.5343 25.7875 18.7817 25.3423C18.9675 25.0078 18.8193 24.2154 18.8193 23.8367C18.8193 23.2525 18.9254 22.7464 19.4968 22.4607C19.7087 22.3547 20.7207 22.073 20.9272 22.331C21.2115 22.6864 21.8289 23.2469 22.2823 23.2721C22.5226 23.2854 22.8379 23.3201 23.0727 23.2679C23.3822 23.1991 23.3309 22.9117 23.4115 22.6698" stroke="white" stroke-linecap="round"/>
<path d="M67.9153 68.7953C67.1511 68.421 66.027 68.4958 65.3515 69.0587C64.6647 69.6311 65.2333 70.6627 65.9956 70.8321C66.3351 70.9075 66.5315 71.0537 66.9031 71.0537C67.2416 71.0537 67.6718 71.08 67.9529 70.8613C68.1267 70.7261 68.3799 70.2367 68.438 70.0332C68.5541 69.6271 68.3021 69.4952 68.1411 69.2135C68.0643 69.0792 67.8561 69.0964 67.727 69.0964C67.4645 69.0964 67.6858 68.4443 67.6894 68.285C67.703 67.6852 67.903 67.0748 68.0282 66.4908C68.1086 66.1154 68.2624 65.6766 68.4255 65.3323C68.5496 65.0702 68.5928 64.8293 68.5928 64.5418C68.5928 64.2605 68.7316 64.0281 68.7434 63.7346C68.7592 63.339 68.8772 62.7835 69.0278 62.413C69.1783 62.0424 69.2703 60.8378 69.2703 61.2378C69.2703 61.4434 69.2972 61.5409 69.4962 61.6435C69.8458 61.8236 70.311 61.9241 70.7007 61.9446C71.4828 61.9857 71.9193 61.791 72.4489 61.2085C72.6843 60.9495 72.9669 60.3674 72.7333 60.004C72.2482 59.2494 70.6891 59.5356 69.9102 59.5356C69.6763 59.5356 69.0275 59.5695 68.8939 59.8032C68.7027 60.1379 68.6353 60.632 68.9316 60.9283C68.9877 60.9845 69.2072 61.3119 69.3289 61.175C69.4432 61.0464 68.8869 60.9479 68.8563 60.9241C68.4006 60.5697 67.6648 60.504 67.129 60.3302C66.195 60.0273 65.2316 59.7791 64.2641 59.6108C63.8556 59.5398 63.4947 59.4238 63.1056 59.2762C62.4407 59.0241 61.7196 58.9843 61.0311 58.8204C60.7567 58.755 60.1823 58.7955 59.9772 58.5903C59.725 58.3381 59.9082 57.7798 59.5589 57.5615C59.4069 57.4665 59.4166 57.3165 59.2202 57.2729C59.0738 57.2404 58.8708 57.158 58.7141 57.1098C58.1262 56.9289 57.3203 57.0185 56.6982 57.0512C56.146 57.0803 55.9526 58.0379 55.7781 58.4063C55.1458 59.7411 57.3704 60.2884 58.1871 60.2884C58.4707 60.2884 59.1794 60.1828 59.3916 59.9705C59.6133 59.7489 59.5589 59.3973 59.5589 59.0839" stroke="white" stroke-linecap="round"/>
<path d="M68.539 26.2049C68.5369 26.1734 68.5353 26.1419 68.534 26.1104M68.534 26.1104C68.47 24.5521 69.3011 23.0504 69.2201 21.4896C69.1645 20.4195 69.1203 19.1533 68.7117 18.152C68.4863 17.5999 69.1032 17.0383 69.0499 16.4709C69.0226 16.1793 69.1846 15.9306 69.2037 15.6468C69.2192 15.416 69.2119 15.2085 69.2558 14.9806C69.3008 14.7473 69.1895 14.4166 69.1242 14.1983C69.0407 13.9194 68.9914 13.8917 68.6364 13.7444C66.2801 12.7662 63.5401 12.2123 60.9994 12.0373C59.8429 11.9576 58.6734 11.9237 57.5145 11.8964C57.125 11.8872 56.7197 11.9733 56.3335 11.9226C55.9482 11.8721 55.602 11.7885 55.2219 11.6887C53.9919 11.3659 52.6514 11.3309 51.392 11.1537C51.059 11.1069 50.3514 10.9238 50.0623 11.1582C49.9009 11.2892 48.9175 11.0011 48.6788 10.9085L48.0433 10.6619C47.4796 10.4432 48.5923 11.1183 48.6818 11.2013C49.3999 11.8663 50.2135 12.4414 50.9569 13.0844C51.5252 13.5761 52.1387 13.9759 52.7125 14.4565C53.3611 14.9997 54.0148 15.4703 54.7652 15.872C56.0703 16.5707 57.3137 17.4595 58.2592 18.6139C58.6688 19.1141 59.3923 19.5071 59.9585 19.8071C60.3392 20.0088 60.6591 20.2405 61.0621 20.3968C61.4176 20.5348 61.6787 20.8626 61.9627 21.1051C62.3423 21.4293 62.8069 21.6579 63.1704 22.0044C63.8852 22.6859 64.6469 23.249 65.411 23.8607C65.8263 24.1932 66.4426 24.3381 66.9021 24.5963C67.2648 24.8001 67.5026 25.1019 67.7588 25.4177C67.8801 25.5672 68.036 25.6481 68.1902 25.7511C68.3748 25.8743 68.3805 26.0104 68.534 26.1104ZM68.534 26.1104C68.5624 26.1289 68.5958 26.1462 68.6364 26.162M65.8082 20.8562C65.8073 20.8429 65.8065 20.8297 65.8059 20.8164M65.8059 20.8164C65.7745 20.1611 66.1248 19.5319 66.0861 18.8755C66.0596 18.4255 66.0374 17.8931 65.8606 17.471C65.7631 17.2383 66.0245 17.0038 66.0003 16.7651C65.9879 16.6425 66.0562 16.5383 66.0636 16.4191C66.0697 16.3221 66.066 16.2348 66.0841 16.1391C66.1026 16.0411 66.0544 15.9018 66.0259 15.8099C65.9896 15.6924 65.9685 15.6806 65.8168 15.6177C64.81 15.2003 63.6407 14.9602 62.5574 14.8799C62.0643 14.8433 61.5657 14.826 61.0717 14.8114C60.9057 14.8065 60.7331 14.8416 60.5684 14.8193C60.404 14.7971 60.2563 14.761 60.094 14.718C59.5689 14.5791 58.9975 14.5608 58.4603 14.483C58.3182 14.4624 58.0161 14.3836 57.8936 14.4814C57.8251 14.536 57.4052 14.4123 57.3032 14.3727L57.0317 14.2674C56.7909 14.1739 57.2669 14.4607 57.3053 14.4958C57.6131 14.7773 57.9614 15.0212 58.2799 15.2936C58.5235 15.5018 58.786 15.6715 59.0318 15.875C59.3097 16.1051 59.5895 16.3047 59.9104 16.4756C60.4685 16.7728 61.0008 17.1497 61.4068 17.6376C61.5828 17.8489 61.8921 18.0161 62.1343 18.1437C62.2971 18.2295 62.434 18.3277 62.6062 18.3946C62.758 18.4535 62.8702 18.592 62.9919 18.6947C63.1545 18.832 63.3532 18.9293 63.509 19.076C63.8155 19.3644 64.1416 19.6031 64.4689 19.8623C64.6467 20.0032 64.9098 20.0658 65.1063 20.1755C65.2615 20.2622 65.3636 20.3897 65.4736 20.5231C65.5257 20.5863 65.5924 20.6207 65.6584 20.6644C65.7374 20.7167 65.7402 20.7739 65.8059 20.8164ZM65.8059 20.8164C65.818 20.8243 65.8323 20.8316 65.8497 20.8384" stroke="white" stroke-linecap="round"/>
<path d="M36.6388 56.8561C37.2758 56.4396 37.8436 56.1968 38.3368 55.614C38.7426 55.1344 39.4995 54.4337 39.4995 53.7361C39.4995 53.4815 39.4716 53.2091 39.5162 52.9582C39.5557 52.7364 39.6722 52.3094 39.5413 52.0966C39.2435 51.6126 38.9622 51.1023 38.6379 50.6244C38.2335 50.0284 37.951 49.3931 37.584 48.7926C37.2697 48.2782 37.0905 47.5408 37.0905 46.9607C37.0905 46.5628 37.0152 46.1937 37.0152 45.7897C37.0152 45.4363 37.3032 45.2392 37.4502 44.9616C37.7137 44.4638 38.6714 44.9491 38.6714 44.2464C38.6714 43.6395 38.3078 43.7169 37.7931 43.4392C37.5327 43.2987 37.1573 43.0042 36.8479 43.0042C36.3825 43.0042 35.9162 42.9947 35.451 43.0042C34.275 43.0282 33.1042 43.3707 31.9295 43.4517C31.29 43.4958 30.6358 43.4583 30.0139 43.6483C29.4929 43.8075 29.0114 43.9386 28.4707 44.0205C27.4759 44.1713 26.5531 44.5575 25.5305 44.5851C25.3527 44.59 24.6856 44.5266 24.6689 44.811C24.6476 45.1726 24.7686 45.1991 24.97 45.4509C25.0454 45.5451 25.3075 45.4744 25.4176 45.4927C25.6442 45.5305 25.8076 45.6391 26.0575 45.6391C26.4329 45.6391 26.8149 45.8047 27.1532 45.957C27.5333 46.128 27.5824 46.3624 27.8475 46.601C28.3297 47.035 27.7723 48.211 27.6426 48.7298C27.4314 49.5746 27.3797 50.4092 27.0194 51.21C26.8801 51.5194 26.9892 52.2125 27.1532 52.473C27.3021 52.7095 27.3315 52.9134 27.5715 53.0962C27.8587 53.315 27.9278 53.6698 28.2114 53.8825C28.4131 54.0338 28.5371 54.2585 28.7383 54.4095C28.935 54.5569 29.1988 54.6659 29.3741 54.8277C30.0262 55.4297 31.1309 55.4454 31.896 55.7855C32.6501 56.1206 33.4106 56.2672 34.2339 56.4044C34.8054 56.4997 35.2968 56.555 35.886 56.555H36.2624M33.1758 47.8223C33.0257 47.977 32.5931 48.6972 32.996 48.8762C33.0731 48.9105 34.0608 49.4489 34.1503 49.1355C34.2369 48.8324 34.4029 48.657 34.3803 48.274C34.3758 48.197 33.6865 47.9728 33.5522 47.9728M30.9173 51.737C31.1467 51.9038 31.6265 52.1235 31.8793 51.8708C32.1177 51.6324 31.9615 51.5864 31.6701 51.5864M37.241 53.4684C36.9722 53.5826 36.3998 54.0616 36.6806 54.1418C36.9738 54.2256 37.1657 53.9485 37.1657 53.6943" stroke="white" stroke-linecap="round"/>
</g>
<g opacity="0.1">
<path d="M147.669 99.3346C147.341 98.2152 146.776 97.8658 145.891 97.1891C144.982 96.4936 143.559 96.0222 142.424 96.0222C141.543 96.0222 140.459 95.8627 139.693 96.3986C139.199 96.7442 138.675 96.9334 138.141 97.21C137.628 97.4763 137.41 97.7693 137.05 98.2012C136.429 98.9465 136 99.6063 136 100.602C136 101.285 136.264 101.993 136.414 102.655C136.566 103.323 136.678 104.09 137.062 104.671C137.64 105.545 138.587 106.133 139.425 106.716C140.02 107.13 140.573 107.467 141.303 107.536C141.741 107.578 142.218 107.557 142.658 107.54C142.992 107.528 143.29 107.354 143.612 107.319C143.925 107.284 144.093 107.133 144.348 107.072C144.729 106.98 145.297 106.831 145.569 106.524C145.736 106.337 146.05 106.247 146.18 106.035C146.385 105.699 147.044 105.389 147.066 104.981C147.093 104.509 146.26 103.992 145.937 103.701C145.694 103.482 145.342 103.282 145.067 103.099C144.785 102.911 144.543 102.683 144.264 102.496C143.723 102.136 143.17 101.69 142.591 101.384C142.306 101.233 141.915 100.991 141.738 100.69C141.638 100.519 141.688 100.539 141.889 100.539C142.26 100.539 142.63 100.539 143.001 100.539C143.675 100.539 144.548 100.458 145.147 100.125C145.483 99.9384 146.048 99.8664 146.427 99.7821C146.825 99.6936 147.167 99.6222 147.552 99.4476C148.221 99.1432 148.972 99.2241 149.668 99.067C150.113 98.9664 150.563 98.8829 151.019 98.8829C151.194 98.8829 151.551 99.7678 151.588 99.9703C151.671 100.427 151.659 100.895 151.659 101.371C151.659 101.853 151.619 102.315 151.583 102.781C151.553 103.17 151.238 103.523 151.073 103.852C150.789 104.421 150.296 105.327 149.701 105.642C149.474 105.762 149.215 106.322 148.932 105.884C148.834 105.733 148.588 105.651 148.459 105.508C148.327 105.361 148.143 105.169 147.97 105.073C147.47 104.795 147.01 104.077 146.389 104.077" stroke="white" stroke-linecap="round"/>
<path d="M137.685 148.115C137.97 148.152 138.461 148.345 138.746 148.183C139.07 147.997 139.326 147.89 139.629 147.637C140.081 147.259 140.545 146.979 140.834 146.453C141.239 145.719 141.586 144.959 141.976 144.222C142.628 142.992 143.4 140.261 145.267 141.288C145.907 141.64 146.444 141.703 146.701 142.508C146.887 143.089 146.788 143.703 146.88 144.282C146.951 144.724 146.859 145.239 146.786 145.667C146.669 146.349 146.743 147.017 147.028 147.691C147.262 148.245 147.235 148.777 147.561 149.297C147.853 149.762 148.105 149.983 148.618 150.266C149.09 150.525 149.663 150.275 150.094 150.004C150.418 149.8 150.671 149.035 150.853 148.703C151.135 148.191 151.472 147.799 152.11 147.824C152.347 147.834 153.369 148.075 153.426 148.401C153.504 148.849 153.774 149.638 154.159 149.878C154.363 150.006 154.623 150.188 154.854 150.256C155.158 150.345 155.252 150.068 155.439 149.895" stroke="white" stroke-linecap="round"/>
<path d="M100.249 107.795C99.4846 107.421 98.3605 107.496 97.685 108.059C96.9982 108.631 97.5668 109.663 98.3291 109.832C98.6686 109.908 98.865 110.054 99.2366 110.054C99.5751 110.054 100.005 110.08 100.286 109.861C100.46 109.726 100.713 109.237 100.772 109.033C100.888 108.627 100.636 108.495 100.475 108.213C100.398 108.079 100.19 108.096 100.061 108.096C99.798 108.096 100.019 107.444 100.023 107.285C100.037 106.685 100.237 106.075 100.362 105.491C100.442 105.115 100.596 104.677 100.759 104.332C100.883 104.07 100.926 103.829 100.926 103.542C100.926 103.261 101.065 103.028 101.077 102.735C101.093 102.339 101.211 101.784 101.361 101.413C101.512 101.042 101.604 99.8378 101.604 100.238C101.604 100.443 101.631 100.541 101.83 100.643C102.179 100.824 102.644 100.924 103.034 100.945C103.816 100.986 104.253 100.791 104.782 100.208C105.018 99.9495 105.3 99.3674 105.067 99.004C104.582 98.2494 103.023 98.5356 102.244 98.5356C102.01 98.5356 101.361 98.5695 101.227 98.8032C101.036 99.1379 100.969 99.632 101.265 99.9283C101.321 99.9845 101.541 100.312 101.662 100.175C101.777 100.046 101.22 99.9479 101.19 99.9241C100.734 99.5697 99.9983 99.504 99.4625 99.3302C98.5285 99.0273 97.5651 98.7791 96.5976 98.6108C96.1891 98.5398 95.8282 98.4238 95.4391 98.2762C94.7742 98.0241 94.0531 97.9843 93.3646 97.8204C93.0902 97.755 92.5158 97.7955 92.3107 97.5903C92.0585 97.3381 92.2417 96.7798 91.8924 96.5615C91.7404 96.4665 91.75 96.3165 91.5537 96.2729C91.4072 96.2404 91.2043 96.158 91.0476 96.1098C90.4597 95.9289 89.6538 96.0185 89.0317 96.0512C88.4795 96.0803 88.2861 97.0379 88.1116 97.4063C87.4793 98.7411 89.7039 99.2884 90.5206 99.2884C90.8042 99.2884 91.5129 99.1828 91.7251 98.9705C91.9468 98.7489 91.8924 98.3973 91.8924 98.0839" stroke="white" stroke-linecap="round"/>
<path d="M106.206 153.872C106.204 153.84 106.202 153.809 106.201 153.777M106.201 153.777C106.137 152.219 106.968 150.717 106.887 149.156C106.832 148.086 106.787 146.82 106.379 145.819C106.153 145.267 106.77 144.705 106.717 144.138C106.69 143.846 106.852 143.597 106.871 143.314C106.886 143.083 106.879 142.875 106.923 142.647C106.968 142.414 106.857 142.083 106.791 141.865C106.708 141.586 106.658 141.558 106.303 141.411C103.947 140.433 101.207 139.879 98.6664 139.704C97.5099 139.624 96.3403 139.59 95.1815 139.563C94.792 139.554 94.3867 139.64 94.0004 139.589C93.6151 139.539 93.2689 139.455 92.8889 139.355C91.6589 139.033 90.3183 138.998 89.059 138.82C88.726 138.774 88.0184 138.591 87.7293 138.825C87.5679 138.956 86.5845 138.668 86.3458 138.575L85.7102 138.329C85.1466 138.11 86.2593 138.785 86.3488 138.868C87.0669 139.533 87.8805 140.108 88.6239 140.751C89.1922 141.243 89.8057 141.643 90.3794 142.123C91.028 142.666 91.6818 143.137 92.4322 143.539C93.7373 144.237 94.9807 145.126 95.9262 146.281C96.3358 146.781 97.0593 147.174 97.6255 147.474C98.0062 147.676 98.3261 147.907 98.7291 148.064C99.0845 148.202 99.3457 148.529 99.6296 148.772C100.009 149.096 100.474 149.325 100.837 149.671C101.552 150.353 102.314 150.916 103.078 151.527C103.493 151.86 104.11 152.005 104.569 152.263C104.932 152.467 105.17 152.769 105.426 153.084C105.547 153.234 105.703 153.315 105.857 153.418C106.042 153.541 106.047 153.677 106.201 153.777ZM106.201 153.777C106.229 153.796 106.263 153.813 106.303 153.829M103.475 148.523C103.474 148.51 103.474 148.496 103.473 148.483M103.473 148.483C103.441 147.828 103.792 147.199 103.753 146.542C103.727 146.092 103.704 145.56 103.528 145.138C103.43 144.905 103.691 144.671 103.667 144.432C103.655 144.309 103.723 144.205 103.731 144.086C103.737 143.989 103.733 143.902 103.751 143.806C103.77 143.708 103.721 143.569 103.693 143.477C103.657 143.359 103.635 143.347 103.484 143.284C102.477 142.867 101.308 142.627 100.224 142.547C99.7312 142.51 99.2327 142.493 98.7387 142.478C98.5727 142.473 98.4001 142.508 98.2354 142.486C98.071 142.464 97.9233 142.428 97.761 142.385C97.2359 142.246 96.6645 142.228 96.1272 142.15C95.9852 142.129 95.6831 142.05 95.5606 142.148C95.4921 142.203 95.0722 142.079 94.9702 142.039L94.6987 141.934C94.4579 141.841 94.9339 142.127 94.9723 142.163C95.2801 142.444 95.6284 142.688 95.9469 142.96C96.1904 143.168 96.453 143.338 96.6988 143.542C96.9766 143.772 97.2565 143.971 97.5774 144.142C98.1355 144.439 98.6678 144.816 99.0738 145.304C99.2498 145.516 99.5591 145.683 99.8013 145.81C99.9641 145.896 100.101 145.994 100.273 146.061C100.425 146.12 100.537 146.259 100.659 146.361C100.822 146.499 101.02 146.596 101.176 146.743C101.482 147.031 101.809 147.27 102.136 147.529C102.314 147.67 102.577 147.732 102.773 147.842C102.928 147.929 103.031 148.056 103.141 148.19C103.193 148.253 103.259 148.287 103.325 148.331C103.404 148.383 103.407 148.441 103.473 148.483ZM103.473 148.483C103.485 148.491 103.499 148.498 103.517 148.505" stroke="white" stroke-linecap="round"/>
<path d="M124.972 133.856C125.609 133.44 126.177 133.197 126.67 132.614C127.076 132.134 127.833 131.434 127.833 130.736C127.833 130.482 127.805 130.209 127.85 129.958C127.889 129.736 128.006 129.309 127.875 129.097C127.577 128.613 127.296 128.102 126.971 127.624C126.567 127.028 126.284 126.393 125.917 125.793C125.603 125.278 125.424 124.541 125.424 123.961C125.424 123.563 125.349 123.194 125.349 122.79C125.349 122.436 125.637 122.239 125.784 121.962C126.047 121.464 127.005 121.949 127.005 121.246C127.005 120.639 126.641 120.717 126.127 120.439C125.866 120.299 125.491 120.004 125.181 120.004C124.716 120.004 124.25 119.995 123.784 120.004C122.608 120.028 121.438 120.371 120.263 120.452C119.623 120.496 118.969 120.458 118.347 120.648C117.826 120.808 117.345 120.939 116.804 121.021C115.809 121.171 114.887 121.558 113.864 121.585C113.686 121.59 113.019 121.527 113.002 121.811C112.981 122.173 113.102 122.199 113.304 122.451C113.379 122.545 113.641 122.474 113.751 122.493C113.978 122.53 114.141 122.639 114.391 122.639C114.766 122.639 115.148 122.805 115.487 122.957C115.867 123.128 115.916 123.362 116.181 123.601C116.663 124.035 116.106 125.211 115.976 125.73C115.765 126.575 115.713 127.409 115.353 128.21C115.214 128.519 115.323 129.213 115.487 129.473C115.636 129.709 115.665 129.913 115.905 130.096C116.192 130.315 116.261 130.67 116.545 130.882C116.747 131.034 116.871 131.259 117.072 131.409C117.268 131.557 117.532 131.666 117.708 131.828C118.36 132.43 119.464 132.445 120.229 132.785C120.984 133.121 121.744 133.267 122.567 133.404C123.139 133.5 123.63 133.555 124.219 133.555H124.596M121.509 124.822C121.359 124.977 120.927 125.697 121.329 125.876C121.407 125.91 122.394 126.449 122.484 126.136C122.57 125.832 122.736 125.657 122.714 125.274C122.709 125.197 122.02 124.973 121.886 124.973M119.251 128.737C119.48 128.904 119.96 129.124 120.213 128.871C120.451 128.632 120.295 128.586 120.004 128.586M125.574 130.468C125.306 130.583 124.733 131.062 125.014 131.142C125.307 131.226 125.499 130.949 125.499 130.694" stroke="white" stroke-linecap="round"/>
</g>
<g opacity="0.1">
<path d="M98.6808 14.0523C98.3805 13.0277 97.8638 12.7078 97.0538 12.0884C96.2214 11.4518 94.9192 11.0203 93.8802 11.0203C93.0737 11.0203 92.0811 10.8743 91.3803 11.3649C90.9284 11.6812 90.4483 11.8544 89.9601 12.1076C89.49 12.3513 89.2904 12.6195 88.9609 13.0149C88.3924 13.6971 88 14.3009 88 15.2123C88 15.8373 88.2413 16.486 88.379 17.0919C88.5179 17.7032 88.6205 18.4051 88.9724 18.9371C89.5014 19.7371 90.3681 20.2754 91.1353 20.8092C91.6795 21.1877 92.1854 21.4958 92.8542 21.5595C93.2551 21.5977 93.6914 21.5785 94.0946 21.5633C94.3999 21.5518 94.6731 21.3931 94.9674 21.3604C95.254 21.3286 95.4078 21.1907 95.6412 21.1346C95.9903 21.0505 96.5097 20.9136 96.759 20.6331C96.9115 20.4615 97.1995 20.379 97.3179 20.1852C97.5057 19.878 98.1088 19.5945 98.1295 19.2204C98.1535 18.7882 97.3914 18.3149 97.0959 18.049C96.8736 17.849 96.5511 17.6654 96.2996 17.4977C96.0416 17.3257 95.8201 17.1168 95.5646 16.9465C95.0692 16.6162 94.5627 16.2084 94.0333 15.9281C93.7724 15.79 93.4144 15.5681 93.2524 15.2927C93.1604 15.1363 93.2062 15.1548 93.3902 15.1548C93.7296 15.1548 94.069 15.1548 94.4085 15.1548C95.0248 15.1548 95.8246 15.0802 96.3724 14.7758C96.68 14.6049 97.1969 14.539 97.5438 14.4619C97.9084 14.3809 98.2219 14.3155 98.5736 14.1557C99.1866 13.877 99.8736 13.9512 100.511 13.8073C100.918 13.7153 101.33 13.6389 101.747 13.6389C101.908 13.6389 102.234 14.4488 102.268 14.6342C102.344 15.0522 102.333 15.4801 102.333 15.9167C102.333 16.3576 102.297 16.7803 102.264 17.2068C102.237 17.5627 101.947 17.8859 101.797 18.1868C101.536 18.7079 101.086 19.5371 100.541 19.8253C100.334 19.9353 100.096 20.4484 99.8369 20.0473C99.7473 19.9088 99.5226 19.8342 99.4043 19.7028C99.2833 19.5683 99.1152 19.3929 98.9564 19.3047C98.4989 19.0505 98.0779 18.3935 97.5094 18.3935" stroke="white" stroke-width="0.915336" stroke-linecap="round"/>
<path d="M91.3917 76.281C91.6507 76.1564 92.1674 76.0492 92.3165 75.7575C92.4865 75.4247 92.642 75.1951 92.7565 74.8179C92.9281 74.2529 93.1628 73.7649 93.1172 73.1671C93.0534 72.331 92.9287 71.5051 92.8516 70.6749C92.723 69.2885 91.8742 66.5801 93.9993 66.418C94.7271 66.3625 95.2113 66.1204 95.867 66.6531C96.3408 67.038 96.5939 67.606 96.9878 68.0399C97.2889 68.3716 97.4946 68.8525 97.6673 69.2506C97.9428 69.8854 98.3706 70.4034 98.9776 70.8117C99.4765 71.1473 99.746 71.6076 100.304 71.864C100.802 72.0932 101.134 72.1405 101.718 72.0959C102.255 72.055 102.597 71.5316 102.81 71.0689C102.97 70.7212 102.762 69.9424 102.733 69.5647C102.689 68.9823 102.756 68.4696 103.304 68.1412C103.507 68.0195 104.495 67.6615 104.72 67.9032C105.031 68.2359 105.689 68.7478 106.143 68.7384C106.384 68.7335 106.701 68.744 106.931 68.6742C107.234 68.5821 107.161 68.2993 107.223 68.0521" stroke="white" stroke-linecap="round"/>
<path d="M148.249 22.7953C147.485 22.421 146.36 22.4958 145.685 23.0587C144.998 23.6311 145.567 24.6627 146.329 24.8321C146.669 24.9075 146.865 25.0537 147.237 25.0537C147.575 25.0537 148.005 25.08 148.286 24.8613C148.46 24.7261 148.713 24.2367 148.772 24.0332C148.888 23.6271 148.636 23.4952 148.475 23.2135C148.398 23.0792 148.19 23.0964 148.061 23.0964C147.798 23.0964 148.019 22.4443 148.023 22.285C148.037 21.6852 148.237 21.0748 148.362 20.4908C148.442 20.1154 148.596 19.6766 148.759 19.3323C148.883 19.0702 148.926 18.8293 148.926 18.5418C148.926 18.2605 149.065 18.0281 149.077 17.7346C149.093 17.339 149.211 16.7835 149.361 16.413C149.512 16.0424 149.604 14.8378 149.604 15.2378C149.604 15.4434 149.631 15.5409 149.83 15.6435C150.179 15.8236 150.644 15.9241 151.034 15.9446C151.816 15.9857 152.253 15.791 152.782 15.2085C153.018 14.9495 153.3 14.3674 153.067 14.004C152.582 13.2494 151.023 13.5356 150.244 13.5356C150.01 13.5356 149.361 13.5695 149.227 13.8032C149.036 14.1379 148.969 14.632 149.265 14.9283C149.321 14.9845 149.541 15.3119 149.662 15.175C149.777 15.0464 149.22 14.9479 149.19 14.9241C148.734 14.5697 147.998 14.504 147.462 14.3302C146.529 14.0273 145.565 13.7791 144.598 13.6108C144.189 13.5398 143.828 13.4238 143.439 13.2762C142.774 13.0241 142.053 12.9843 141.365 12.8204C141.09 12.755 140.516 12.7955 140.311 12.5903C140.058 12.3381 140.242 11.7798 139.892 11.5615C139.74 11.4665 139.75 11.3165 139.554 11.2729C139.407 11.2404 139.204 11.158 139.048 11.1098C138.46 10.9289 137.654 11.0185 137.032 11.0512C136.48 11.0803 136.286 12.0379 136.112 12.4063C135.479 13.7411 137.704 14.2884 138.521 14.2884C138.804 14.2884 139.513 14.1828 139.725 13.9705C139.947 13.7489 139.892 13.3973 139.892 13.0839" stroke="white" stroke-linecap="round"/>
<path d="M154.559 49.5216C154.527 49.5205 154.496 49.519 154.464 49.5172M154.464 49.5172C152.907 49.4262 151.495 48.4501 149.934 48.3758C148.864 48.3249 147.6 48.2432 146.563 48.5505C145.991 48.7199 145.493 48.0504 144.924 48.047C144.631 48.0453 144.399 47.8594 144.119 47.8122C143.891 47.7738 143.683 47.7605 143.461 47.6942C143.233 47.6263 142.893 47.7042 142.67 47.7475C142.384 47.8029 142.351 47.8493 142.169 48.1879C140.962 50.4354 140.139 53.107 139.713 55.6177C139.519 56.7605 139.369 57.921 139.227 59.0714C139.179 59.458 139.224 59.8699 139.135 60.2492C139.047 60.6276 138.929 60.9638 138.792 61.3321C138.349 62.524 138.181 63.8544 137.88 65.09C137.8 65.4166 137.548 66.1026 137.752 66.4135C137.867 66.5872 137.482 67.5371 137.367 67.7654L137.058 68.3733C136.785 68.9125 137.567 67.8723 137.658 67.7914C138.391 67.1429 139.044 66.3905 139.758 65.7146C140.304 65.1978 140.762 64.6271 141.297 64.1038C141.902 63.5124 142.436 62.9086 142.91 62.2018C143.734 60.9724 144.742 59.8234 145.985 58.9972C146.523 58.6392 146.986 57.9583 147.341 57.4246C147.579 57.0659 147.842 56.7706 148.037 56.385C148.21 56.0451 148.562 55.8178 148.831 55.5593C149.192 55.2137 149.465 54.7741 149.846 54.4467C150.595 53.8031 151.231 53.101 151.916 52.4015C152.288 52.0213 152.493 51.4223 152.796 50.9907C153.034 50.6501 153.358 50.4434 153.698 50.2198C153.859 50.114 153.955 49.9668 154.073 49.8236C154.214 49.6522 154.349 49.66 154.464 49.5172ZM154.464 49.5172C154.485 49.4908 154.506 49.4592 154.526 49.4204M148.965 51.7079C148.952 51.7076 148.939 51.707 148.926 51.7064M148.926 51.7064C148.27 51.6726 147.679 51.2616 147.022 51.2349C146.572 51.2166 146.04 51.1858 145.602 51.3199C145.361 51.3938 145.154 51.1104 144.914 51.1108C144.79 51.111 144.693 51.0326 144.576 51.0134C144.48 50.9978 144.392 50.9928 144.299 50.9653C144.203 50.9371 144.06 50.9713 143.966 50.9905C143.845 51.0149 143.831 51.0348 143.754 51.1795C143.238 52.1399 142.883 53.2796 142.696 54.3496C142.611 54.8366 142.544 55.331 142.48 55.8211C142.459 55.9858 142.477 56.161 142.438 56.3227C142.4 56.4841 142.349 56.6275 142.29 56.7847C142.1 57.2934 142.025 57.8602 141.894 58.3871C141.86 58.5264 141.751 58.8191 141.836 58.9508C141.884 59.0244 141.719 59.4299 141.67 59.5274L141.538 59.7872C141.421 60.0175 141.754 59.5723 141.792 59.5376C142.103 59.2593 142.38 58.9369 142.683 58.647C142.914 58.4253 143.109 58.1809 143.336 57.9565C143.593 57.7029 143.819 57.4442 144.021 57.1418C144.372 56.616 144.8 56.1237 145.326 55.7681C145.554 55.6141 145.751 55.3228 145.902 55.0945C146.003 54.9411 146.115 54.8146 146.198 54.6499C146.272 54.5046 146.421 54.4067 146.535 54.2959C146.688 54.1476 146.804 53.9597 146.966 53.8191C147.283 53.5428 147.553 53.242 147.844 52.942C148.001 52.779 148.09 52.5235 148.218 52.3388C148.32 52.1931 148.457 52.1041 148.601 52.0078C148.669 51.9623 148.71 51.8993 148.76 51.838C148.82 51.7646 148.877 51.7675 148.926 51.7064ZM148.926 51.7064C148.935 51.6951 148.943 51.6816 148.952 51.665" stroke="white" stroke-linecap="round"/>
<path d="M113.331 57.4046C114.197 57.4098 114.889 57.5363 115.723 57.2932C116.41 57.0932 117.568 56.9041 118.007 56.2422C118.167 56.0006 118.311 55.7247 118.511 55.5146C118.688 55.3289 119.067 54.997 119.077 54.7128C119.098 54.0664 119.152 53.4054 119.145 52.7481C119.136 51.9284 119.267 51.148 119.296 50.3475C119.321 49.6619 119.615 48.8496 119.979 48.2992C120.229 47.9216 120.39 47.5241 120.644 47.1407C120.866 46.8054 121.263 46.7994 121.577 46.6283C122.14 46.3216 122.744 47.3841 123.185 46.7173C123.567 46.1415 123.173 45.9864 122.859 45.3994C122.701 45.1024 122.529 44.587 122.236 44.3926C121.794 44.1 121.358 43.798 120.91 43.5146C119.779 42.7982 118.453 42.3873 117.288 41.7258C116.653 41.3657 116.056 40.9189 115.347 40.7084C114.752 40.5319 114.213 40.3537 113.648 40.0915C112.61 39.6093 111.491 39.3958 110.504 38.7793C110.332 38.6721 109.739 38.1928 109.544 38.4521C109.297 38.7818 109.395 38.883 109.428 39.2485C109.44 39.3853 109.733 39.4829 109.826 39.5695C110.017 39.7478 110.104 39.9535 110.341 40.1106C110.697 40.3465 110.956 40.7437 111.181 41.1009C111.434 41.502 111.334 41.7553 111.435 42.1484C111.62 42.8633 110.352 43.6287 109.903 44.0395C109.171 44.7084 108.598 45.4678 107.753 46.0011C107.426 46.2072 107.094 46.9334 107.086 47.2837C107.078 47.6016 106.978 47.8136 107.091 48.1379C107.226 48.526 107.068 48.9062 107.204 49.2861C107.3 49.5565 107.276 49.8477 107.373 50.1174C107.466 50.3809 107.648 50.6501 107.713 50.9138C107.953 51.8949 108.992 52.6042 109.504 53.4077C110.009 54.1997 110.638 54.8168 111.333 55.4645C111.816 55.914 112.247 56.2754 112.806 56.6457L113.163 56.8823M115.723 46.6562C115.484 46.7087 114.621 47.1201 114.89 47.5432C114.942 47.6242 115.541 48.7559 115.823 48.5148C116.095 48.2815 116.363 48.2195 116.582 47.8418C116.626 47.766 116.113 47.12 115.986 47.0356M111.12 48.9511C111.233 49.2536 111.55 49.7637 111.948 49.6827C112.324 49.6064 112.205 49.4646 111.929 49.2815M116.032 54.5687C115.705 54.5081 114.861 54.6027 115.077 54.8553C115.302 55.1191 115.659 54.9769 115.818 54.7356" stroke="white" stroke-width="1.13815" stroke-linecap="round"/>
</g>
<g opacity="0.1">
<path d="M69.6808 142.052C69.3805 141.028 68.8638 140.708 68.0538 140.088C67.2214 139.452 65.9192 139.02 64.8802 139.02C64.0737 139.02 63.0811 138.874 62.3803 139.365C61.9284 139.681 61.4483 139.854 60.9601 140.108C60.49 140.351 60.2904 140.619 59.9609 141.015C59.3924 141.697 59 142.301 59 143.212C59 143.837 59.2413 144.486 59.379 145.092C59.5179 145.703 59.6205 146.405 59.9724 146.937C60.5014 147.737 61.3681 148.275 62.1353 148.809C62.6795 149.188 63.1854 149.496 63.8542 149.559C64.2551 149.598 64.6914 149.579 65.0946 149.563C65.3999 149.552 65.6731 149.393 65.9674 149.36C66.254 149.329 66.4078 149.191 66.6412 149.135C66.9903 149.051 67.5097 148.914 67.759 148.633C67.9115 148.462 68.1995 148.379 68.3179 148.185C68.5057 147.878 69.1088 147.595 69.1295 147.22C69.1535 146.788 68.3914 146.315 68.0959 146.049C67.8736 145.849 67.5511 145.665 67.2996 145.498C67.0416 145.326 66.8201 145.117 66.5646 144.946C66.0692 144.616 65.5627 144.208 65.0333 143.928C64.7724 143.79 64.4144 143.568 64.2524 143.293C64.1604 143.136 64.2062 143.155 64.3902 143.155C64.7296 143.155 65.069 143.155 65.4085 143.155C66.0248 143.155 66.8246 143.08 67.3724 142.776C67.68 142.605 68.1969 142.539 68.5438 142.462C68.9084 142.381 69.2219 142.316 69.5736 142.156C70.1866 141.877 70.8736 141.951 71.5107 141.807C71.9183 141.715 72.3304 141.639 72.7472 141.639C72.908 141.639 73.2342 142.449 73.2679 142.634C73.3439 143.052 73.333 143.48 73.333 143.917C73.333 144.358 73.2969 144.78 73.264 145.207C73.2367 145.563 72.9475 145.886 72.797 146.187C72.5365 146.708 72.0858 147.537 71.5413 147.825C71.3335 147.935 71.0964 148.448 70.8369 148.047C70.7473 147.909 70.5226 147.834 70.4043 147.703C70.2833 147.568 70.1152 147.393 69.9564 147.305C69.4989 147.05 69.0779 146.394 68.5094 146.394" stroke="white" stroke-width="0.915336" stroke-linecap="round"/>
<path d="M65.7551 105.282C65.5339 105.098 65.2213 104.673 64.8939 104.659C64.5206 104.643 64.247 104.598 63.8564 104.651C63.2713 104.73 62.7299 104.72 62.2054 105.01C61.4718 105.416 60.773 105.874 60.0502 106.29C58.8434 106.984 56.7346 108.884 55.7022 107.019C55.3486 106.381 54.9268 106.041 55.138 105.223C55.2907 104.632 55.7016 104.165 55.932 103.627C56.1081 103.215 56.4597 102.827 56.7497 102.505C57.2121 101.99 57.5048 101.385 57.6232 100.663C57.7206 100.07 58.0268 99.6331 58.0277 99.0193C58.0285 98.4709 57.9334 98.1497 57.6494 97.6368C57.3886 97.1657 56.7702 97.0726 56.2609 97.0718C55.8782 97.0713 55.2568 97.5848 54.9255 97.7683C54.4145 98.0512 53.9203 98.2036 53.3935 97.8421C53.1982 97.708 52.4614 96.9592 52.5872 96.6535C52.7604 96.2327 52.9516 95.4211 52.754 95.0122C52.6493 94.7955 52.5269 94.5029 52.3675 94.3227C52.1574 94.0853 51.9308 94.2694 51.6802 94.3161" stroke="white" stroke-linecap="round"/>
<path d="M18.2487 154.795C17.4846 154.421 16.3605 154.496 15.685 155.059C14.9982 155.631 15.5668 156.663 16.3291 156.832C16.6686 156.908 16.865 157.054 17.2366 157.054C17.5751 157.054 18.0053 157.08 18.2864 156.861C18.4602 156.726 18.7134 156.237 18.7715 156.033C18.8876 155.627 18.6356 155.495 18.4746 155.213C18.3978 155.079 18.1896 155.096 18.0605 155.096C17.798 155.096 18.0193 154.444 18.0229 154.285C18.0365 153.685 18.2365 153.075 18.3617 152.491C18.4421 152.115 18.5959 151.677 18.759 151.332C18.8831 151.07 18.9263 150.829 18.9263 150.542C18.9263 150.261 19.0651 150.028 19.0769 149.735C19.0927 149.339 19.2107 148.784 19.3613 148.413C19.5118 148.042 19.6038 146.838 19.6038 147.238C19.6038 147.443 19.6307 147.541 19.8297 147.643C20.1793 147.824 20.6445 147.924 21.0342 147.945C21.8163 147.986 22.2528 147.791 22.7824 147.208C23.0178 146.95 23.3004 146.367 23.0668 146.004C22.5817 145.249 21.0226 145.536 20.2437 145.536C20.0098 145.536 19.361 145.57 19.2274 145.803C19.0362 146.138 18.9688 146.632 19.2651 146.928C19.3212 146.984 19.5407 147.312 19.6624 147.175C19.7767 147.046 19.2204 146.948 19.1898 146.924C18.7341 146.57 17.9983 146.504 17.4625 146.33C16.5285 146.027 15.5651 145.779 14.5976 145.611C14.1891 145.54 13.8282 145.424 13.4391 145.276C12.7742 145.024 12.0531 144.984 11.3646 144.82C11.0902 144.755 10.5158 144.795 10.3107 144.59C10.0585 144.338 10.2417 143.78 9.89243 143.561C9.7404 143.466 9.75005 143.317 9.55366 143.273C9.40725 143.24 9.20431 143.158 9.0476 143.11C8.45973 142.929 7.65377 143.019 7.03171 143.051C6.47952 143.08 6.28612 144.038 6.1116 144.406C5.47931 145.741 7.70388 146.288 8.52062 146.288C8.80416 146.288 9.51285 146.183 9.72514 145.971C9.9468 145.749 9.89243 145.397 9.89243 145.084" stroke="white" stroke-linecap="round"/>
<path d="M26.1862 89.3502C26.155 89.3549 26.1238 89.3592 26.0925 89.3632M26.0925 89.3632C24.5452 89.5594 22.9784 88.8588 21.4301 89.0722C20.3686 89.2185 19.1108 89.3701 18.1478 89.8624C17.6168 90.1339 17.0049 89.567 16.444 89.6682C16.1558 89.7202 15.8942 89.58 15.6098 89.585C15.3785 89.5891 15.1724 89.6141 14.9416 89.5897C14.7053 89.5648 14.3853 89.7037 14.1733 89.7873C13.9025 89.8942 13.8791 89.9457 13.7625 90.3119C12.9881 92.7428 12.669 95.52 12.7105 98.0664C12.7294 99.2254 12.795 100.394 12.8662 101.551C12.8902 101.939 13.0104 102.336 12.9927 102.725C12.9751 103.113 12.9212 103.465 12.8541 103.853C12.637 105.106 12.716 106.444 12.6465 107.714C12.6282 108.05 12.5058 108.77 12.764 109.039C12.9082 109.188 12.7047 110.193 12.6327 110.438L12.441 111.093C12.271 111.673 12.8492 110.507 12.9242 110.41C13.5257 109.638 14.0296 108.779 14.6072 107.984C15.0488 107.375 15.395 106.73 15.8251 106.118C16.3113 105.425 16.7246 104.734 17.0611 103.952C17.6463 102.592 18.4263 101.278 19.4962 100.238C19.9598 99.7872 20.2899 99.0329 20.5407 98.4432C20.7093 98.0468 20.9129 97.7084 21.0345 97.2935C21.1417 96.9277 21.4462 96.6396 21.6637 96.3361C21.9545 95.9303 22.1427 95.4479 22.4571 95.0563C23.0754 94.2861 23.5718 93.4793 24.1163 92.666C24.4123 92.224 24.5043 91.5976 24.7225 91.1178C24.8948 90.7392 25.1753 90.4766 25.4682 90.1945C25.6068 90.0609 25.6742 89.8986 25.7637 89.7363C25.8708 89.5419 26.0059 89.5247 26.0925 89.3632ZM26.0925 89.3632C26.1086 89.3333 26.1229 89.2985 26.1352 89.2568M21.0889 92.5255C21.0757 92.5276 21.0626 92.5295 21.0495 92.5313M21.0495 92.5313C20.3992 92.6182 19.7425 92.3227 19.0918 92.417C18.6456 92.4817 18.117 92.549 17.7115 92.7611C17.4879 92.878 17.2321 92.6374 16.9963 92.6818C16.8751 92.7046 16.7656 92.6453 16.6461 92.6481C16.549 92.6503 16.4624 92.6614 16.3655 92.6515C16.2663 92.6414 16.1315 92.7013 16.0423 92.7374C15.9284 92.7836 15.9184 92.8056 15.8687 92.9621C15.5383 94.0008 15.3984 95.1863 15.4104 96.2725C15.4159 96.7669 15.441 97.2652 15.4684 97.7586C15.4777 97.9244 15.5273 98.0934 15.5191 98.2594C15.5109 98.4251 15.4875 98.5754 15.4585 98.7407C15.3646 99.2757 15.395 99.8466 15.3631 100.389C15.3547 100.532 15.3018 100.839 15.4097 100.953C15.4699 101.017 15.3823 101.446 15.3516 101.551L15.2697 101.83C15.197 102.078 15.4423 101.579 15.4741 101.538C15.7283 101.208 15.9418 100.84 16.1861 100.499C16.3728 100.239 16.5196 99.963 16.7016 99.7008C16.9072 99.4043 17.0823 99.1085 17.2253 98.7743C17.474 98.1929 17.8043 97.6305 18.2559 97.1845C18.4516 96.9913 18.5918 96.6688 18.6984 96.4167C18.7701 96.2472 18.8563 96.1024 18.9082 95.9252C18.9541 95.7689 19.0826 95.6453 19.1746 95.5154C19.2975 95.3417 19.3776 95.1355 19.5105 94.9677C19.7718 94.6379 19.982 94.2926 20.2125 93.9445C20.3377 93.7553 20.3777 93.4879 20.4703 93.2827C20.5435 93.1208 20.6618 93.0082 20.7855 92.8872C20.844 92.83 20.8726 92.7606 20.9106 92.6911C20.956 92.608 21.0127 92.6003 21.0495 92.5313ZM21.0495 92.5313C21.0563 92.5185 21.0624 92.5036 21.0676 92.4858" stroke="white" stroke-linecap="round"/>
<path d="M38.1813 136.106C38.9267 135.664 39.5847 135.417 40.175 134.78C40.6608 134.255 41.557 133.497 41.5924 132.703C41.6054 132.414 41.5875 132.103 41.651 131.82C41.7071 131.57 41.8613 131.09 41.7233 130.841C41.4092 130.276 41.1153 129.682 40.7709 129.122C40.3413 128.423 40.0523 127.687 39.6656 126.985C39.3343 126.385 39.168 125.537 39.1975 124.877C39.2177 124.425 39.1508 124.001 39.1714 123.542C39.1893 123.14 39.5268 122.931 39.708 122.623C40.0329 122.07 41.0972 122.67 41.1329 121.871C41.1637 121.181 40.7464 121.251 40.1753 120.909C39.8864 120.736 39.4744 120.382 39.1226 120.366C38.5935 120.343 38.0638 120.308 37.5343 120.296C36.196 120.263 34.8474 120.593 33.5076 120.625C32.7783 120.643 32.0364 120.567 31.3196 120.752C30.7191 120.906 30.165 121.031 29.546 121.097C28.4073 121.217 27.3384 121.61 26.1743 121.589C25.9719 121.586 25.2167 121.48 25.1832 121.802C25.1407 122.212 25.2768 122.248 25.4931 122.545C25.574 122.656 25.8756 122.589 25.9998 122.615C26.2556 122.67 26.4359 122.802 26.7199 122.814C27.1468 122.833 27.5727 123.041 27.9497 123.231C28.3731 123.445 28.417 123.714 28.7064 123.999C29.2326 124.517 28.5391 125.826 28.3652 126.409C28.0822 127.359 27.9811 128.305 27.5307 129.197C27.3567 129.542 27.4455 130.336 27.6187 130.64C27.776 130.917 27.7991 131.15 28.0626 131.37C28.378 131.633 28.4387 132.04 28.7502 132.297C28.9719 132.479 29.1015 132.741 29.3226 132.922C29.5387 133.1 29.8332 133.237 30.0242 133.43C30.7351 134.148 31.9904 134.222 32.8431 134.647C33.6835 135.067 34.5407 135.272 35.4699 135.47C36.1148 135.607 36.6707 135.695 37.3406 135.725L37.7686 135.744M34.7027 125.658C34.5242 125.826 33.9957 126.623 34.4447 126.847C34.5307 126.89 35.6263 127.553 35.744 127.201C35.8579 126.861 36.0555 126.67 36.0493 126.233C36.0481 126.145 35.2757 125.855 35.1231 125.848M31.9359 129.994C32.1883 130.196 32.7227 130.47 33.0229 130.196C33.306 129.937 33.1309 129.876 32.7995 129.862M39.0381 132.284C38.7267 132.401 38.0515 132.916 38.3667 133.022C38.6958 133.132 38.9281 132.826 38.941 132.537" stroke="white" stroke-width="1.13815" stroke-linecap="round"/>
</g>
</svg>
